<?xml version="1.0" encoding="utf-8"?>
<!-- Generated by IcoMoon.io -->
<!DOCTYPE svg PUBLIC "-//W3C//DTD SVG 1.1//EN" "http://www.w3.org/Graphics/SVG/1.1/DTD/svg11.dtd">
<svg version="1.1" xmlns="http://www.w3.org/2000/svg" xmlns:xlink="http://www.w3.org/1999/xlink" width="200" height="200" viewBox="0 0 200 200">
<g>
</g>
	<path d="M195.538 2.931c-2.269-1.906-5.113-2.931-8.031-2.931-0.719 0-1.45 0.063-2.175 0.194l-106.262 18.75c-5.975 1.050-10.325 6.237-10.325 12.306v107.313c-6.344-4.6-14.575-7.313-23.712-7.313-5.312 0-10.625 0.881-15.806 2.6-11.862 3.956-21.375 11.888-26.1 21.775-3.65 7.644-4.119 15.956-1.337 23.412 4.756 12.737 18.269 20.962 34.425 20.962 5.312 0 10.625-0.869 15.8-2.6 11.856-3.944 21.369-11.875 26.094-21.75 2.031-4.262 2.981-8.725 3.019-13.15h0.112v-100c0.719 0 1.45-0.063 2.175-0.181l104.094-18.369v75.862c-6.35-4.6-14.575-7.313-23.719-7.313-5.313 0-10.631 0.881-15.806 2.6-11.862 3.956-21.375 11.888-26.087 21.775-3.65 7.644-4.125 15.956-1.344 23.412 4.763 12.738 18.263 20.963 34.425 20.963 5.313 0 10.631-0.869 15.806-2.6 11.85-3.944 21.362-11.875 26.087-21.75 2.038-4.262 2.981-8.725 3.025-13.15h0.113v-131.25c0-3.687-1.637-7.2-4.469-9.569zM48.050 185.55c-14.975 4.994-30.456 0.113-34.556-10.875-4.112-11 4.694-23.963 19.663-28.956 14.975-4.994 30.456-0.125 34.556 10.875 4.119 10.994-4.687 23.963-19.662 28.956zM166.581 166.8c-14.987 4.994-30.469 0.113-34.569-10.875-4.112-11 4.7-23.963 19.663-28.956 14.987-4.994 30.469-0.125 34.569 10.875 4.119 10.994-4.681 23.963-19.663 28.956zM187.25 31.25l-106.262 18.75v-18.75l106.262-18.75v18.75z" fill="#000000"></path>
</svg>
