<?xml version="1.0" encoding="utf-8"?>
<!-- Generated by IcoMoon.io -->
<!DOCTYPE svg PUBLIC "-//W3C//DTD SVG 1.1//EN" "http://www.w3.org/Graphics/SVG/1.1/DTD/svg11.dtd">
<svg version="1.1" xmlns="http://www.w3.org/2000/svg" xmlns:xlink="http://www.w3.org/1999/xlink" width="200" height="200" viewBox="0 0 200 200">
<g>
</g>
	<path d="M196.338 47.406l-37.5-37.5c-2.344-2.344-5.531-3.656-8.838-3.656h-131.25c-10.337 0-18.75 8.406-18.75 18.75v150c0 10.338 8.413 18.75 18.75 18.75h162.5c10.338 0 18.75-8.412 18.75-18.75v-118.75c0-3.319-1.319-6.5-3.662-8.844zM187.5 175c0 3.456-2.794 6.25-6.25 6.25h-162.5c-3.456 0-6.25-2.794-6.25-6.25v-150c0-3.456 2.794-6.25 6.25-6.25h125v25h-0.012c0 10.356 8.4 18.75 18.75 18.75h25.012v112.5zM168.738 56.25h-6.25c-6.888 0-12.5-5.606-12.5-12.5h0.012v-25l37.5 37.5h-18.762zM96.875 50c-1.725 0-3.125-1.394-3.125-3.125s1.4-3.125 3.125-3.125h31.25c1.719 0 3.125 1.4 3.125 3.125s-1.406 3.125-3.125 3.125h-31.25zM96.875 68.75c-1.725 0-3.125-1.4-3.125-3.125s1.4-3.125 3.125-3.125h31.25c1.719 0 3.125 1.4 3.125 3.125s-1.406 3.125-3.125 3.125h-31.25zM93.75 84.375c0-1.731 1.4-3.125 3.125-3.125h75c1.719 0 3.125 1.4 3.125 3.125s-1.406 3.125-3.125 3.125h-75c-1.725 0-3.125-1.4-3.125-3.125zM171.875 118.75c1.719 0 3.125 1.394 3.125 3.125 0 1.719-1.406 3.125-3.125 3.125h-143.75c-1.725 0-3.125-1.406-3.125-3.125 0-1.731 1.4-3.125 3.125-3.125h143.75zM171.875 137.5c1.719 0 3.125 1.394 3.125 3.125 0 1.719-1.406 3.125-3.125 3.125h-143.75c-1.725 0-3.125-1.406-3.125-3.125 0-1.731 1.4-3.125 3.125-3.125h143.75zM171.875 156.25c1.719 0 3.125 1.394 3.125 3.125 0 1.719-1.406 3.125-3.125 3.125h-143.75c-1.725 0-3.125-1.406-3.125-3.125 0-1.731 1.4-3.125 3.125-3.125h143.75zM171.875 100c1.719 0 3.125 1.4 3.125 3.125s-1.406 3.125-3.125 3.125h-143.75c-1.725 0-3.125-1.394-3.125-3.125s1.4-3.125 3.125-3.125h143.75zM31.25 87.5h43.75c3.456 0 6.25-2.794 6.25-6.25v-37.5c0-3.456-2.794-6.25-6.25-6.25h-43.75c-3.456 0-6.25 2.794-6.25 6.25v37.5c0 3.45 2.794 6.25 6.25 6.25zM37.5 50h31.25v25h-31.25v-25z" fill="#000000"></path>
</svg>
