<?xml version="1.0" encoding="utf-8"?>
<!-- Generated by IcoMoon.io -->
<!DOCTYPE svg PUBLIC "-//W3C//DTD SVG 1.1//EN" "http://www.w3.org/Graphics/SVG/1.1/DTD/svg11.dtd">
<svg version="1.1" xmlns="http://www.w3.org/2000/svg" xmlns:xlink="http://www.w3.org/1999/xlink" width="200" height="200" viewBox="0 0 200 200">
<g>
</g>
	<path d="M168.75 0h-137.5c-13.806 0-25 11.194-25 25v150c0 13.806 11.194 25 25 25h137.5c13.806 0 25-11.194 25-25v-150c0-13.806-11.194-25-25-25zM181.25 175c0 6.887-5.613 12.5-12.5 12.5h-137.5c-6.894 0-12.5-5.613-12.5-12.5v-150c0-6.894 5.606-12.5 12.5-12.5h137.5c6.887 0 12.5 5.606 12.5 12.5v150zM162.5 25h-125c-3.456 0-6.25 2.794-6.25 6.25v112.5c0 3.456 2.794 6.25 6.25 6.25h125c3.456 0 6.25-2.794 6.25-6.25v-112.5c0-3.456-2.794-6.25-6.25-6.25zM162.5 31.25v86.681l-20.313-22.063c-1.194-1.35-2.894-2.119-4.688-2.119s-3.506 0.769-4.688 2.119l-16.275 18.438-49.35-55.937c-1.188-1.35-2.894-2.119-4.688-2.119s-3.5 0.769-4.688 2.119l-20.313 23.425v-50.544h125zM37.5 91.25l25-28.75 54.038 61.256 17.263 19.994h-96.3v-52.5zM142.125 143.75l-21.425-24.719 16.8-19.031 25 27.369v16.381h-20.375zM125 81.25c10.35 0 18.75-8.394 18.75-18.75s-8.4-18.75-18.75-18.75c-10.363 0-18.75 8.394-18.75 18.75s8.387 18.75 18.75 18.75zM125 50c6.887 0 12.5 5.606 12.5 12.5s-5.613 12.5-12.5 12.5c-6.9 0-12.5-5.606-12.5-12.5s5.6-12.5 12.5-12.5z" fill="#000000"></path>
</svg>
