<?xml version="1.0" encoding="utf-8"?>
<!-- Generated by IcoMoon.io -->
<!DOCTYPE svg PUBLIC "-//W3C//DTD SVG 1.1//EN" "http://www.w3.org/Graphics/SVG/1.1/DTD/svg11.dtd">
<svg version="1.1" xmlns="http://www.w3.org/2000/svg" xmlns:xlink="http://www.w3.org/1999/xlink" width="200" height="200" viewBox="0 0 200 200">
<g>
</g>
	<path d="M152.13 76.39c-2.75 0-5.46 0.24-8.090 0.68-6.56-21.45-26.88-37.080-50.96-37.080-29.38 0-53.19 23.28-53.19 52 0 2.56 0.2 5.080 0.57 7.55-1.41-0.16-2.83-0.27-4.29-0.27-19.97 0-36.17 15.84-36.17 35.36 0 19.53 16.2 35.36 36.17 35.36h49.83v-38h-21l35-46 35 46h-21v38h38.12c26.45 0 47.87-20.96 47.87-46.8 0.010-25.85-21.42-46.8-47.86-46.8z" fill="#000000"></path>
</svg>
