<?xml version="1.0" encoding="utf-8"?>
<!-- Generated by IcoMoon.io -->
<!DOCTYPE svg PUBLIC "-//W3C//DTD SVG 1.1//EN" "http://www.w3.org/Graphics/SVG/1.1/DTD/svg11.dtd">
<svg version="1.1" xmlns="http://www.w3.org/2000/svg" xmlns:xlink="http://www.w3.org/1999/xlink" width="200" height="200" viewBox="0 0 200 200">
<g>
</g>
	<path d="M100 125c0-6.904 5.596-12.5 12.5-12.5s12.5 5.596 12.5 12.5c0 6.904-5.596 12.5-12.5 12.5s-12.5-5.596-12.5-12.5zM181.256 81.25c-0.006 0-0.006 0 0 0l-0.006-37.5v-18.75c0-10.356-8.4-18.75-18.75-18.75h-128.125c-18.956 0-34.375 15.425-34.375 34.375v125c0 18.95 15.419 34.375 34.375 34.375h112.5c18.95 0 34.375-15.425 34.375-34.375v-9.375c0 0 0 0 0.006 0 24.988-18.756 24.988-56.244 0-75zM34.375 18.75h128.125c3.444 0 6.25 2.8 6.25 6.25v38.65c-1.963-0.7-4.050-1.15-6.25-1.15h-0.006v-31.25c0-3.456-2.8-6.25-6.25-6.25h-131.25c-3.45 0-6.25 2.794-6.25 6.25v24.644c-3.856-3.944-6.244-9.319-6.244-15.269 0-12.081 9.788-21.875 21.875-21.875zM156.244 37.5h-131.25v-6.25h131.25v6.25zM156.244 43.75v6.25h-131.25v-6.25h131.25zM156.244 56.25v6.25h-121.869c-3.375 0-6.525-0.825-9.375-2.188v-4.063h131.244zM168.75 165.625c0 12.081-9.794 21.875-21.875 21.875h-112.5c-12.088 0-21.875-9.794-21.875-21.875v-98.506c5.944 4.919 13.569 7.881 21.875 7.881h128.125c3.444 0 6.25 2.8 6.25 6.25v12.5h-56.25c-17.263 0-31.25 13.987-31.25 31.25s13.994 31.25 31.25 31.25h56.25v9.375zM176.731 143.75h-64.231c-10.338 0-18.75-8.412-18.75-18.75s8.412-18.75 18.75-18.75h56.25c3.856-0.050 7.681-1.919 10.012-5.025 0.65-0.875 1.156-1.856 1.563-2.881 0.056-0.138 0.156-0.244 0.206-0.388 4.494 5.894 6.969 13.119 6.969 20.794 0 9.613-3.881 18.531-10.769 25z" fill="#000000"></path>
</svg>
